<mxfile host="app.diagrams.net" modified="2023-07-26T06:25:16.381Z" agent="Mozilla/5.0 (Windows NT 10.0; Win64; x64) AppleWebKit/537.36 (KHTML, like Gecko) Chrome/114.0.0.0 Safari/537.36" version="21.6.5" etag="Ba4Rw6n8MVNG7sGQWwCe" type="github">
  <diagram name="第 1 页" id="n-U-YmvTYSM-fmJBBucL">
    <mxGraphModel>
      <root>
        <mxCell id="0" />
        <mxCell id="1" parent="0" />
      </root>
    </mxGraphModel>
  </diagram>
</mxfile>
